<svg xmlns="http://www.w3.org/2000/svg" viewBox="0 0 100 100" width="32" height="32">
  <rect width="100" height="100" rx="20" fill="#FF5A00"/>
  <ellipse cx="55" cy="55" rx="28" ry="22" fill="#E65000"/>
  <ellipse cx="50" cy="50" rx="28" ry="22" fill="#FF9E00"/>
  <ellipse cx="65" cy="42" rx="14" ry="14" fill="#FF9E00"/>
  <circle cx="70" cy="38" r="4" fill="white"/>
  <circle cx="71" cy="37" r="2" fill="black"/>
  <polygon points="82,44 92,48 82,52" fill="#FF5A00"/>
  <ellipse cx="48" cy="30" rx="10" ry="6" fill="#FF5A00" transform="rotate(-10 48 30)"/>
  <ellipse cx="28" cy="48" rx="10" ry="16" fill="#E65000" transform="rotate(-15 28 48)"/>
  <ellipse cx="72" cy="48" rx="10" ry="16" fill="#E65000" transform="rotate(15 72 48)"/>
  <rect x="42" y="70" width="6" height="18" rx="3" fill="#FF9E00" transform="rotate(-5 45 70)"/>
  <rect x="52" y="70" width="6" height="18" rx="3" fill="#FF9E00" transform="rotate(5 55 70)"/>
  <circle cx="40" cy="88" r="5" fill="#F0EAD6"/>
  <circle cx="60" cy="88" r="5" fill="#F0EAD6"/>
</svg>
